/* XPM */
static xpm_row_t black_block[] = {
"64 64 26 1",
" 	c #C0C0C0",
".	c #BEBEBE",
"+	c #727272",
"@	c #404040",
"#	c #444444",
"$	c #BDBDBD",
"%	c #717171",
"&	c #414141",
"*	c #565656",
"=	c #4A4A4A",
"-	c #4B4B4B",
";	c #4D4D4D",
">	c #4F4F4F",
",	c #505050",
"'	c #525252",
")	c #434343",
"!	c #4C4C4C",
"~	c #3D3D3D",
"{	c #454545",
"]	c #3C3C3C",
"^	c #424242",
"/	c #535353",
"(	c #494949",
"_	c #383838",
":	c #6F6F6F",
"<	c #6E6E6E",
"  .+@######################################################@+.  ",
"  .+@######################################################@+.  ",
"..$%&######################################################&%$..",
"++%*=------------------------------------------------------=*%++",
"@@&=;;;;;;;;;;;;;;;;;;;;;;;;;;;;;;;;;;;;;;;;;;;;;;;;;;;;;;;;=&@@",
"###-;;;;;;;;;;;;;;;;;;;;;;;;;;;;;;;;;;;;;;;;;;;;;;;;;;;;;;;;-###",
"###-;;>,,,,,,,,,,,,,,,,,,,,,,,,,,,,,,,,,,,,,,,,,,,,,,,,,,>;;-###",
"###-;;,'''''''''''''''''''''''''''''''''''''''''''''''''',;;-###",
"###-;;,'''''''''''''''''''''''''''''''''''''''''''''''''',;;-###",
"###-;;,'''''''''''''''''''''''''''''''''''''''''''''''''',;;-###",
"###-;;,'''''''''''''''''''''''''''''''''''''''''''''''''',;;-###",
"###-;;,'''''''''''''''''''''''''''''''''''''''''''''''''',;;-###",
"###-;;,'''''''''''''''''''''''''''''''''''''''''''''''''',;;-###",
"###-;;,'''''''''''''''''''''''''''''''''''''''''''''''''',;;-###",
"###-;;,'''''''''''''''''''''''''''''''''''''''''''''''''',;;-###",
"###-;;,'''''''''''''''''''''''''''''''''''''''''''''''''',;;-###",
"###-;;,'''''''''''''''''''''''''''''''''''''''''''''''''',;;-###",
"###-;;,'''''''''''''''''''''''''''''''''''''''''''''''''',;;-###",
"###-;;,'''''''''''''''''''''''''''''''''''''''''''''''''',;;-###",
"###-;;,'''''''''''''''''''''''''''''''''''''''''''''''''',;;-###",
"###-;;,'''''''''''''''''''''''''''''''''''''''''''''''''',;;-###",
"###-;;,'''''''''''''''''''''''''''''''''''''''''''''''''',;;-###",
"###-;;,'''''''''''''''''''''''''''''''''''''''''''''''''',;;-###",
"###-;;,'''''''''''''''''''''''''''''''''''''''''''''''''',;;-###",
"###-;;,'''''''''''''''''''''''''''''''''''''''''''''''''',;;-###",
"###-;;,'''''''''''''''''''''''''''''''''''''''''''''''''',;;-###",
"###-;;,'''''''''''''''''''''''''''''''''''''''''''''''''',;;-###",
"###-;;,'''''''''''''''''''''''''''''''''''''''''''''''''',;;-###",
"###-;;,'''''''''''''''''''''''''''''''''''''''''''''''''',;;-###",
"###-;;,'''''''''''''''''''''''''''''''''''''''''''''''''',;;-###",
"###-;;,'''''''''''''''''''''''''''''''''''''''''''''''''',;;-###",
")))=!!,'''''''''''''''''''''''''''''''''''''''''''''''''',!!=)))",
"~~~){{;'''''''''''''''''''''''''''''''''''''''''''''''''';{{)~~~",
"]]]^##;'''''''''''''''''''''''''''''''''''''''''''''''''';##^]]]",
"]]]^##;'''''''''''''''''''''''''''''''''''''''''''''''''';##^]]]",
"]]]^##;'''''''''''''''''''''''''''''''''''''''''''''''''';##^]]]",
"]]]^##;'''''''''''''''''''''''''''''''''''''''''''''''''';##^]]]",
"]]]^##;'''''''''''''''''''''''''''''''''''''''''''''''''';##^]]]",
"]]]^##;'''''''''''''''''''''''''''''''''''''''''''''''''';##^]]]",
"]]]^##;'''''''''''''''''''''''''''''''''''''''''''''''''';##^]]]",
"]]]^##;'''''''''''''''''''''''''''''''''''''''''''''''''';##^]]]",
"]]]^##;'''''''''''''''''''''''''''''''''''''''''''''''''';##^]]]",
"]]]^##;'''''''''''''''''''''''''''''''''''''''''''''''''';##^]]]",
"]]]^##;'''''''''''''''''''''''''''''''''''''''''''''''''';##^]]]",
"]]]^##;'''''''''''''''''''''''''''''''''''''''''''''''''';##^]]]",
"]]]^##;'''''''''''''''''''''''''''''''''''''''''''''''''';##^]]]",
"]]]^##;'''''''''''''''''''''''''''''''''''''''''''''''''';##^]]]",
"]]]^##;'''''''''''''''''''''''''''''''''''''''''''''''''';##^]]]",
"]]]^##;'''''''''''''''''''''''''''''''''''''''''''''''''';##^]]]",
"]]]^##;'''''''''''''''''''''''''''''''''''''''''''''''''';##^]]]",
"]]]^##;'''''''''''''''''''''''''''''''''''''''''''''''''';##^]]]",
"]]]^##;'''''''''''''''''''''''''''''''''''''''''''''''''';##^]]]",
"]]]^##;'''''''''''''''''''''''''''''''''''''''''''''''''';##^]]]",
"]]]^##;'''''''''''''''''''''''''''''''''''''''''''''''''';##^]]]",
"]]]^##;'''''''''''''''''''''''''''''''''''''''''''''''''';##^]]]",
"]]]^##;'''''''''''''''''''''''''''''''''''''''''''''''''';##^]]]",
"]]]^##;/''''''''''''''''''''''''''''''''''''''''''''''''/;##^]]]",
"]]]^##(;;;;;;;;;;;;;;;;;;;;;;;;;;;;;;;;;;;;;;;;;;;;;;;;;;(##^]]]",
"]]]^########################################################^]]]",
"___&########################################################&___",
"::<>&^^^^^^^^^^^^^^^^^^^^^^^^^^^^^^^^^^^^^^^^^^^^^^^^^^^^^^&><::",
"..$<_]]]]]]]]]]]]]]]]]]]]]]]]]]]]]]]]]]]]]]]]]]]]]]]]]]]]]]_<$..",
"  .:_]]]]]]]]]]]]]]]]]]]]]]]]]]]]]]]]]]]]]]]]]]]]]]]]]]]]]]_:.  ",
"  .:_]]]]]]]]]]]]]]]]]]]]]]]]]]]]]]]]]]]]]]]]]]]]]]]]]]]]]]_:.  "};
