/* XPM */
static xpm_row_t cursor_xpm[] = {
"32 31 166 2",
"  	c None",
". 	c #000000",
"+ 	c #FFFFFF",
"@ 	c #FFFFFF",
"# 	c #FFFFFF",
"$ 	c #FFFFFF",
"% 	c #FFFFFF",
"& 	c #FFFFFF",
"* 	c #FFFFFF",
"= 	c #FFFFFF",
"- 	c #FFFFFF",
"; 	c #FFFFFF",
"> 	c #FFFFFF",
", 	c #FFFFFF",
"' 	c #FFFFFF",
") 	c #FFFFFF",
"! 	c #FFFFFF",
"~ 	c #FFFFFF",
"{ 	c #FFFFFF",
"] 	c #FFFFFF",
"^ 	c #FFFFFF",
"/ 	c #FFFFFF",
"( 	c #FFFFFF",
"_ 	c #FFFFFF",
": 	c #FFFFFF",
"< 	c #FFFFFF",
"[ 	c #FFFFFF",
"} 	c #FFFFFF",
"| 	c #FFFFFF",
"1 	c #FFFFFF",
"2 	c #FFFFFF",
"3 	c #FFFFFF",
"4 	c #FFFFFF",
"5 	c #FFFFFF",
"6 	c #FFFFFF",
"7 	c #FFFFFF",
"8 	c #FFFFFF",
"9 	c #FFFFFF",
"0 	c #FFFFFF",
"a 	c #FFFFFF",
"b 	c #FFFFFF",
"c 	c #FFFFFF",
"d 	c #FFFFFF",
"e 	c #FFFFFF",
"f 	c #FFFFFF",
"g 	c #FFFFFF",
"h 	c #FFFFFF",
"i 	c #FFFFFF",
"j 	c #FFFFFF",
"k 	c #FFFFFF",
"l 	c #FFFFFF",
"m 	c #FFFFFF",
"n 	c #FFFFFF",
"o 	c #FFFFFF",
"p 	c #FFFFFF",
"q 	c #FFFFFF",
"r 	c #FFFFFF",
"s 	c #FFFFFF",
"t 	c #FFFFFF",
"u 	c #FFFFFF",
"v 	c #FFFFFF",
"w 	c #FFFFFF",
"x 	c #FFFFFF",
"y 	c #FFFFFF",
"z 	c #FFFFFF",
"A 	c #FFFFFF",
"B 	c #FFFFFF",
"C 	c #FD6D14",
"D 	c #04A6E7",
"E 	c #FFFFFF",
"F 	c #FFFDFC",
"G 	c #0AA8E8",
"H 	c #FD6F18",
"I 	c #FD7724",
"J 	c #FFF9F5",
"K 	c #FFFCFA",
"L 	c #0FAAE8",
"M 	c #FD741F",
"N 	c #FBFEFF",
"O 	c #FD721B",
"P 	c #FFF6F0",
"Q 	c #FE8840",
"R 	c #FFE6D7",
"S 	c #2DB5EC",
"T 	c #35B8EC",
"U 	c #FE7F31",
"V 	c #5FC7F0",
"W 	c #FFE3D1",
"X 	c #FE853A",
"Y 	c #14ACE9",
"Z 	c #FE8D46",
"` 	c #E1F5FC",
" .	c #23B1EA",
"..	c #1DAFEA",
"+.	c #EAF8FD",
"@.	c #FFEDE2",
"#.	c #FDFEFF",
"$.	c #49BFEE",
"%.	c #FFF2EA",
"&.	c #F3FBFE",
"*.	c #F6FCFE",
"=.	c #50C2EF",
"-.	c #FFDBC4",
";.	c #18ADE9",
">.	c #D0EFFB",
",.	c #FFC8A7",
"'.	c #FEB78B",
").	c #FD7B29",
"!.	c #E5F6FD",
"~.	c #92D9F5",
"{.	c #BDE8F9",
"].	c #FFF4ED",
"^.	c #FFEADD",
"/.	c #FE9350",
"(.	c #72CDF2",
"_.	c #FFBE97",
":.	c #F8FDFE",
"<.	c #FEAF7E",
"[.	c #43BDED",
"}.	c #FFF0E6",
"|.	c #FFD5BB",
"1.	c #A3DFF7",
"2.	c #FFCBAB",
"3.	c #F0FAFE",
"4.	c #66C9F1",
"5.	c #FFE0CC",
"6.	c #FFD8C1",
"7.	c #FEA974",
"8.	c #D9F2FC",
"9.	c #83D4F4",
"0.	c #FEA56D",
"a.	c #FEA268",
"b.	c #FE9655",
"c.	c #DDF3FC",
"d.	c #58C4F0",
"e.	c #3DBBED",
"f.	c #FE8F4C",
"g.	c #AFE3F8",
"h.	c #27B3EB",
"i.	c #FD8236",
"j.	c #C1EAF9",
"k.	c #B7E6F9",
"l.	c #FE9E63",
"m.	c #CAEDFA",
"n.	c #FEB384",
"o.	c #FE9B5E",
"p.	c #FD7C2D",
"q.	c #A9E1F7",
"r.	c #EDF9FE",
"s.	c #C5EBFA",
"t.	c #FFCFB1",
"u.	c #FEBB92",
"v.	c #FEAC78",
"w.	c #8ED7F5",
"x.	c #FEC19B",
"y.	c #FFD2B6",
"z.	c #FFDDC8",
"A.	c #FEC5A1",
"B.	c #9DDDF6",
"C.	c #97DBF6",
"D.	c #7CD1F3",
"E.	c #FE985A",
"F.	c #89D6F4",
"G.	c #D5F0FB",
"H.	c #76CFF2",
"I.	c #6ECCF2",
"                    P @.@.J                                     ",
"  @.z.J         ]._.i.C C Z 2.J                                 ",
"J Z C A.      %.E.C C C C C C <.J                               ",
"J Q C i.P     n.C C C C C C C C 2.                              ",
"  ,.C C |.  }.M C C C C C C C C f.J                             ",
"  }.).C o.K 5.C C C C C C C C C H }.                            ",
"    u.C C R 5.C C C C C C C C C H }.                            ",
"    R H C n.%.M C C C C C C C C Z J         K W A.W             ",
"    F 7.C I %.n.C C C C C C C C t.    + @.2./.C C Q J           ",
"      z.C C ,.].E.C C C C C C <.K K z.<.M C C C C C 6.          ",
"      J b.C Q J P x.i.C C Z 2.R A.Q C C C C C I O C 0.J K       ",
"        y.C C '.@.+ J @.R y.a.H C C C C H l.y.].n.C H W v.@.    ",
"        ].i.C C O n.z.'.p.C C C C C p.A.^.F   + W C C x._.Q }.  ",
"          y.U C C C C C C C C C C C p.].        K l.C X W H n.+ ",
"          + }.2.Q C C C C C C C C C C t.          |.C C 6.0.I %.",
"          5.X n.W y.f.C C C C C C C C E.K         P X C 0.6.C R ",
"        z.I C M ,.K J /.C C C C C C C C W           A.C H W M R ",
"      R p.C i.5.      2.C C C C C C C C n.          }.Q Q W I %.",
"    P b.C X ^.F +     }.M C C C C C C C I }.          ^.W 7.7.F ",
"    ,.C I W K }.      + v.C C C C C C C C 2.        R i.C H W   ",
"  ].i.C 2.F 6.F         z.C C C C C C C C o.F     ^.7.Z C u.+   ",
"  z.C f.J 6.R           J Q C C C C C C l.@.    5.x.7.C E.P     ",
"  x.C ,.K 7.K             x.C C C C Q t.J   ].y.-.7.C f.}.      ",
"  n.C 5.W '.              ^.H p.<.-.J + P R R R b.C /.@.        ",
"  '.C W |.n.              F R P         F J ,.I C 0.%.          ",
"  2.C y.6.X P                         K 6.f.C M A.J             ",
"  @.).a.%.p.n.J                   %.y./.C C 0.R                 ",
"    y.H _.A.C E.|.}.J K K ].R y.v.I C H a.z.K                   ",
"      6.Q ).C C C H U Q i.M C C C X _.R F                       ",
"        P |.<.Q O C C H I f.v.2.R J                             ",
"              J %.@.^.}.P K                                     "};
