/* XPM */
static xpm_row_t flag[] = {
"64 92 78 1",
" 	c None",
".	c #838383",
"+	c #FFFFFF",
"@	c #7B7B7B",
"#	c #5C5C5C",
"$	c #262626",
"%	c #3E3E3E",
"&	c #CCCCCC",
"*	c #C3C3C3",
"=	c #E7E7E7",
"-	c #0B0B0B",
";	c #000000",
">	c #9E9E9E",
",	c #1D1D1D",
"'	c #666666",
")	c #2E2E2E",
"!	c #131313",
"~	c #020202",
"{	c #252525",
"]	c #0A0A0A",
"^	c #010101",
"/	c #AAAAAA",
"(	c #4C4C4C",
"_	c #BFBFBF",
":	c #9F9F9F",
"<	c #030303",
"[	c #050505",
"}	c #4E4E4E",
"|	c #FEFEFE",
"1	c #585858",
"2	c #0D0D0D",
"3	c #414141",
"4	c #B9B9B9",
"5	c #484848",
"6	c #090909",
"7	c #474747",
"8	c #878787",
"9	c #6F6F6F",
"0	c #181818",
"a	c #353535",
"b	c #454545",
"c	c #0C0C0C",
"d	c #FDFDFD",
"e	c #979797",
"f	c #040404",
"g	c #060606",
"h	c #E2E2E2",
"i	c #888888",
"j	c #0E0E0E",
"k	c #282828",
"l	c #C5C5C5",
"m	c #171717",
"n	c #545454",
"o	c #070707",
"p	c #D8D8D8",
"q	c #2B2B2B",
"r	c #080808",
"s	c #696969",
"t	c #EDEDED",
"u	c #5E5E5E",
"v	c #BABABA",
"w	c #656565",
"x	c #7C7C7C",
"y	c #3D3D3D",
"z	c #121212",
"A	c #ADADAD",
"B	c #1A1A1A",
"C	c #747474",
"D	c #323232",
"E	c #616161",
"F	c #151515",
"G	c #6B6B6B",
"H	c #8A8A8A",
"I	c #9C9C9C",
"J	c #A4A4A4",
"K	c #CDCDCD",
"L	c #8E8E8E",
"M	c #DFDFDF",
"    .++++@                                                      ",
"   ++++++++                                                     ",
"  ++++++++++                                                    ",
" ++++++++++++                                                   ",
"#++++++++++++$                                                  ",
"++++++++++++++                                                  ",
"++++++++++++++                                                  ",
"++++++++++++++                                                  ",
"++++++++++++++                                                  ",
"%++++++++++++&                                                  ",
" ++++++++++++                                      *            ",
"  ++++++++++=                                 -;;;;>+++++,'     ",
"   ++++++++                                );;;;;;;>++++++++!   ",
"   ++++++++                              ~;;;;;;;;;>++++++++++{ ",
"   ++++++++   !                       ]^;;;;;;;;;;;/+++++++++++(",
"   ++++++++   ;;                   _~:+<;;;;;;;;;;;/+++++++++++(",
"   ++++++++   ;;;[               }[+|++<;;;;;;;;;;;/+++++++++++(",
"   ++++++++   ;;;;;~1         2~3+|||++<;;;;;;;;;;;/+++++++++++(",
"   ++++++++   ;;;;;;;;;;;;~4+|||+++++||<;;;;;;;;;;;>+++++++++++5",
"   ++++++++   ;;;;;;;;;;;;6|||||+++++||<;;;;;;;;;;;>+++++++++++7",
"   ++++++++   ;;;;;;;;;;;;6|||||+++++||<;;;;;;;;;;;>+++++++++++7",
"   ++++++++   ;;;;;;;;;;;;6|||||+++++||<;;;;;;;;;;[890]a+++++++7",
"   ++++++++   ;;;;;;;;;;;;6|||||+++++||<;;^;;;;b+++6;;;;;;c++++7",
"   ++++++++   ;;;;;;;;;;;;]++++++++++++<;;;;^++++++6;;;;;;;;+++(",
"   ++++++++   ;;;;;;;;;;;;]++++++++++++<;;~d+++++++6;;;;;;;;;e+(",
"   ++++++++   ;;;;;;;;;;;;]++++++++++++~f++++++++++6;;;;;;;;;;g(",
"   ++++++++   ;;;;;;;;;;;;]++++++++++++h+++++++++++6;;;;;;;;;;;;",
"   ++++++++   -;;;;;;;;;;;]++++++++++i;++++++++++++6;;;;;;;;;;;;",
"   ++++++++   ]+<;;;;;;;;;6|||||+++j;;;++++++++++++6;;;;;;;;;;;;",
"   ++++++++   ]++k;;;;;;;;6|||||+};;;;;++++++++++++6;;;;;;;;;;;;",
"   ++++++++   ]++++;;;;;;;6|||+g;;;;;;;++++++++++++6;;;;;;;;;;;;",
"   ++++++++   ]+++++l];;^fmno;;;;;;;;;;++++++++++++6;;;;;;;;;;;;",
"   ++++++++   -++++++++++++;;;;;;;;;;;;++++++++++++6;;;;;;;;;;;;",
"   ++++++++   -++++++++++++;;;;;;;;;;;;++++++++++pb^gcq];;;;;;;;",
"   ++++++++   -++++++++++++;;;;;;;;;;;;+++++++&f;;;+++++++7;;;;;",
"   ++++++++   -++++++++++++;;;;;;;;;;;;+++++6;;;;;;+++++++++-;;;",
"   ++++++++   -++++++++++++;;;;;;;;;;;;+++r;;;;;;;;++++++++++s;;",
"   ++++++++   ]+++++++++++t;;;;;;;;;;;^+u;;;;;;;;;;+++++++++++>;",
"   ++++++++   ]+++++++++++t;;;;;;;;;;^;;;;;;;;;;;;;++++++++++++b",
"   ++++++++   ~v++++++++++t;;;;;;;;;;w+;;;;;;;;;;;;++++++++++++7",
"   ++++++++   ~;x+++++++++t;;;;;;;;)+++;;;;;;;;;;;;++++++++++++7",
"   ++++++++   ~;;2++++++++t;;;;;;6+++++;;;;;;;;;;;;++++++++++++7",
"   ++++++++   <;;;;y+++++++;;;z++++++++;;;;;;;;;;;;++++++++++++(",
"   ++++++++   <;;;;;;;o-rf~e+++++++++++;;;;;;;;;;;;++++++++++++(",
"   ++++++++   <;;;;;;;;;;;o++++++++++++;;;;;;;;;;;;++++++++++++(",
"   ++++++++   <;;;;;;;;;;;o++++++++++++;;;;;;;;;;;;++++++++++++(",
"   ++++++++   ~;;;;;;;;;;;o++++++++++++;;;;;;;;;;;;~<^;;]A+++++5",
"   ++++++++   ~;;;;;;;;;;;o++++++++++++;;;;;;;;B         C~6+++7",
"   ++++++++   ~;;;;;;;;;;;o++++++++++++;;;;;D               fE+7",
"   ++++++++   ~;;;;;;;;;;;o++++++++++++;;6                    ^b",
"   ++++++++   f;;;;;;;;;;;o+++++++++++2                         ",
"   ++++++++    j;;;;;;;;;;o+++++++++F                           ",
"   ++++++++      f;;;;;;;;o++++++GH                             ",
"   ++++++++        If;;;;;o++(J                                 ",
"   ++++++++             K4                                      ",
"   ++++++++                                                     ",
"   ++++++++                                                     ",
"   ++++++++                                                     ",
"   ++++++++                                                     ",
"   ++++++++                                                     ",
"   ++++++++                                                     ",
"   ++++++++                                                     ",
"   ++++++++                                                     ",
"   ++++++++                                                     ",
"   ++++++++                                                     ",
"   ++++++++                                                     ",
"   ++++++++                                                     ",
"   ++++++++                                                     ",
"   ++++++++                                                     ",
"   ++++++++                                                     ",
"   ++++++++                                                     ",
"   ++++++++                                                     ",
"   ++++++++                                                     ",
"   ++++++++                                                     ",
"   ++++++++                                                     ",
"   ++++++++                                                     ",
"   ++++++++                                                     ",
"   ++++++++                                                     ",
"   ++++++++                                                     ",
"   ++++++++                                                     ",
"   ++++++++                                                     ",
"   ++++++++                                                     ",
"   ++++++++                                                     ",
"   ++++++++                                                     ",
"   ++++++++                                                     ",
"   ++++++++                                                     ",
"   ++++++++                                                     ",
"   ++++++++                                                     ",
"   ++++++++                                                     ",
"   L+++++++                                                     ",
"    ++++++                                                      ",
"     M+++                                                       "};
