/* XPM */
static xpm_row_t green_1_right[] = {
"40 128 5 1",
" 	c None",
".	c #0C9C06",
"+	c #0CC005",
"@	c #A0EB14",
"#	c #F0F9B6",
"               ..........               ",
"               ..........               ",
"               ..........               ",
"            ...+++++++......            ",
"            ...+++++++......            ",
"            ...+++++++......            ",
"         ...+++@@@@@@@+++......         ",
"         ...+++@@@@@@@+++......         ",
"         ...+++@@@@@@@+++......         ",
"         ...@@@###@@@@+++......         ",
"         ...@@@###@@@@+++......         ",
"         ...@@@###@@@@+++......         ",
"      ...@@@+++...####@@@+++......      ",
"      ...@@@+++...####@@@+++......      ",
"      ...@@@+++...####@@@+++......      ",
"      ...@@@...+++....@@@+++......      ",
"      ...@@@...+++....@@@+++......      ",
"      ...@@@...+++....@@@+++......      ",
"      ......++++++++++...+++......      ",
"      ......++++++++++...+++......      ",
"      ......++++++++++...+++......      ",
"   ...@@@...++++++++++...++++++......   ",
"   ...@@@...++++++++++...++++++......   ",
"   ...@@@...++++++++++...++++++......   ",
"   ......++++++++++++++++...+++......   ",
"   ......++++++++++++++++...+++......   ",
"   ......++++++++++++++++...+++......   ",
"   ......++++++@@@+++++++...@@@......   ",
"   ......++++++@@@+++++++...@@@......   ",
"   ......++++++@@@+++++++...@@@......   ",
"   ......+++@@@@@@@@@@+++...@@@......   ",
"   ......+++@@@@@@@@@@+++...@@@......   ",
"   ......+++@@@@@@@@@@+++...@@@......   ",
"   ......+++@@@@@@@@@@+++...@@@......   ",
"   ......@@@++++++@@@@+++...@@@......   ",
"   ......@@@++++++@@@@+++...@@@......   ",
"   ......@@@++++++@@@@+++...@@@......   ",
"   ...++++++......++++###...@@@......   ",
"   ...++++++......++++###...@@@......   ",
"   ...++++++......++++###...@@@......   ",
"...+++@@@...++++++....+++###...@@@......",
"...+++@@@...++++++....+++###...@@@......",
"...+++@@@...++++++....+++###...@@@......",
"...+++@@@...++++++....+++###...@@@......",
"...+++@@@...++++++....+++###...@@@......",
"...+++@@@...++++++....+++###...@@@......",
"...@@@...+++++++++++++...###...@@@......",
"...@@@...+++++++++++++...###...@@@......",
"...@@@...+++++++++++++...###...@@@......",
"...@@@...+++@@@@@@++++...+++...@@@......",
"...@@@...+++@@@@@@++++...+++...@@@......",
"...@@@...+++@@@@@@++++...+++...@@@......",
"...@@@...@@@@@@###++++...+++...@@@......",
"...@@@...@@@@@@###++++...+++...@@@......",
"...@@@...@@@@@@###++++...+++...@@@......",
"...###...@@@+++@@@####...+++...+++......",
"...###...@@@+++@@@####...+++...+++......",
"...###...@@@+++@@@####...+++...+++......",
"...###...+++++++++####...+++...+++......",
"...###...+++++++++####...+++...+++......",
"...###...+++++++++####...+++...+++......",
"......++++++...+++@@@@...+++...+++......",
"......++++++...+++@@@@...+++...+++......",
"......++++++...+++@@@@...+++...+++......",
"......+++...+++...@@@@...+++...+++......",
"......+++...+++...@@@@...+++...+++......",
"......+++...+++...@@@@...+++...+++......",
"......+++...+++...@@@@...+++...+++......",
"......+++...+++...@@@@...+++...+++......",
"......+++...+++...@@@@...+++...+++......",
"......+++...@@@...++++...@@@...+++......",
"......+++...@@@...++++...@@@...+++......",
"......+++...@@@...++++...@@@...+++......",
"......@@@...@@@...++++...@@@...+++......",
"......@@@...@@@...++++...@@@...+++......",
"......@@@...@@@...++++...@@@...+++......",
"......@@@...@@@+++++++...@@@...@@@......",
"......@@@...@@@+++++++...@@@...@@@......",
"......@@@...@@@+++++++...@@@...@@@......",
"......@@@...@@@@@@....@@@@@@...@@@......",
"......@@@...@@@@@@....@@@@@@...@@@......",
"......@@@...@@@@@@....@@@@@@...@@@......",
"......++++++...@@@....@@@@@@...@@@......",
"......++++++...@@@....@@@@@@...@@@......",
"......++++++...@@@....@@@@@@...@@@......",
"...+++...+++...+++....@@@...@@@@@@......",
"...+++...+++...+++....@@@...@@@@@@......",
"...+++...+++...+++....@@@...@@@@@@......",
"   ......@@@...+++....@@@...@@@......   ",
"   ......@@@...+++....@@@...@@@......   ",
"   ......@@@...+++....@@@...@@@......   ",
"   ......###...+++....+++...@@@......   ",
"   ......###...+++....+++...@@@......   ",
"   ......###...+++....+++...@@@......   ",
"   ......###+++...####+++...###......   ",
"   ......###+++...####+++...###......   ",
"   ......###+++...####+++...###......   ",
"   ......###+++...####+++...###......   ",
"   ......@@@######@@@@+++...###......   ",
"   ......@@@######@@@@+++...###......   ",
"   ......@@@######@@@@+++...###......   ",
"   ...+++...+++@@@++++...###+++......   ",
"   ...+++...+++@@@++++...###+++......   ",
"   ...+++...+++@@@++++...###+++......   ",
"   ...+++...++++++++++...@@@+++......   ",
"   ...+++...++++++++++...@@@+++......   ",
"   ...+++...++++++++++...@@@+++......   ",
"      ...+++...+++....@@@@@@......      ",
"      ...+++...+++....@@@@@@......      ",
"      ...+++...+++....@@@@@@......      ",
"      ...@@@+++...@@@@@@@+++......      ",
"      ...@@@+++...@@@@@@@+++......      ",
"      ...@@@+++...@@@@@@@+++......      ",
"      ...###@@@+++++++++++++......      ",
"      ...###@@@+++++++++++++......      ",
"      ...###@@@+++++++++++++......      ",
"         ...###@@@+++++++......         ",
"         ...###@@@+++++++......         ",
"         ...###@@@+++++++......         ",
"         ...+++++++++++++......         ",
"         ...+++++++++++++......         ",
"         ...+++++++++++++......         ",
"            ...+++++++......            ",
"            ...+++++++......            ",
"            ...+++++++......            ",
"               ..........               ",
"               ..........               ",
"               ..........               "};
