/* XPM */
static xpm_row_t purple_3_right[] = {
"40 128 5 1",
" 	c None",
".	c #694974",
"+	c #785384",
"@	c #BEABC4",
"#	c #8E6A9A",
"               ..........               ",
"               ..........               ",
"               ..........               ",
"            ...+++++++......            ",
"            ...+++++++......            ",
"            ...+++++++......            ",
"          ..+++++++++++++.....          ",
"          ..+++++++++++++.....          ",
"          ..+++++++++++++.....          ",
"          ..+++++++++++++.....          ",
"          ..@@@###+++++++.....          ",
"          ..@@@###+++++++.....          ",
"          ..@@@###+++++++.....          ",
"      ....@@###+++++++++++++......      ",
"      ....@@###+++++++++++++......      ",
"      ....@@###+++++++++++++......      ",
"      ....##+++...#######+++......      ",
"      ....##+++...#######+++......      ",
"      ....##+++...#######+++......      ",
"      ....++...+++....######......      ",
"      ....++...+++....######......      ",
"      ....++...+++....######......      ",
"   ...++++..++++++++++...###++.......   ",
"   ...++++..++++++++++...###++.......   ",
"   ...++++..++++++++++...###++.......   ",
"   ...++++..++++++++++...###++.......   ",
"   ...++++..+++###++++...@@@++.......   ",
"   ...++++..+++###++++...@@@++.......   ",
"   ...++++..+++###++++...@@@++.......   ",
"   .......@@+++...@@@@+++...@@.......   ",
"   .......@@+++...@@@@+++...@@.......   ",
"   .......@@+++...@@@@+++...@@.......   ",
"   .......@@...+++....+++...##.......   ",
"   .......@@...+++....+++...##.......   ",
"   .......@@...+++....+++...##.......   ",
"   .......##...+++....###...##.......   ",
"   .......##...+++....###...##.......   ",
"   .......##...+++....###...##.......   ",
"...+++....++...+++....###...######......",
"...+++....++...+++....###...######......",
"...+++....++...+++....###...######......",
"...+++....++...+++....###...######......",
"......++++++...###....######..####......",
"......++++++...###....######..####......",
"......++++++...###....######..####......",
"......####..######....######..####......",
"......####..######....######..####......",
"......####..######....######..####......",
"......####..###+++++++...###..####......",
"......####..###+++++++...###..####......",
"......####..###+++++++...###..####......",
"......####..###...++++...###..++++......",
"......####..###...++++...###..++++......",
"......####..###...++++...###..++++......",
"......++++..###...++++...###..++++......",
"......++++..###...++++...###..++++......",
"......++++..###...++++...###..++++......",
"......++++..###...++++...###..++++......",
"......++++..+++...####...+++..++++......",
"......++++..+++...####...+++..++++......",
"......++++..+++...####...+++..++++......",
"......++++..+++...####...+++..++++......",
"......++++..+++...####...+++..++++......",
"......++++..+++...####...+++..++++......",
"......++++++...+++####...+++..++++......",
"......++++++...+++####...+++..++++......",
"......++++++...+++####...+++..++++......",
"...@@@....++++++++@@@@...+++..++++......",
"...@@@....++++++++@@@@...+++..++++......",
"...@@@....++++++++@@@@...+++..++++......",
"...@@@....##+++###@@@@...+++..++++......",
"...@@@....##+++###@@@@...+++..++++......",
"...@@@....##+++###@@@@...+++..++++......",
"...@@@....##+++###@@@@...+++..++++......",
"...###....#####@@@++++...+++..####......",
"...###....#####@@@++++...+++..####......",
"...###....#####@@@++++...+++..####......",
"...###....++######++++...+++..####......",
"...###....++######++++...+++..####......",
"...###....++######++++...+++..####......",
"...###....++++++++++++...@@@..####......",
"...###....++++++++++++...@@@..####......",
"...###....++++++++++++...@@@..####......",
"...+++####..++++++....+++@@@..####......",
"...+++####..++++++....+++@@@..####......",
"...+++####..++++++....+++@@@..####......",
"...+++####..++++++....+++@@@..####......",
"...+++####..++++++....+++@@@..####......",
"...+++####..++++++....+++@@@..####......",
"...+++####..++++++....+++@@@..####......",
"   ...++++++......++++@@@...##.......   ",
"   ...++++++......++++@@@...##.......   ",
"   ...++++++......++++@@@...##.......   ",
"   .......##++++++####+++...##.......   ",
"   .......##++++++####+++...##.......   ",
"   .......##++++++####+++...##.......   ",
"   .......+++++###+++++++...##.......   ",
"   .......+++++###+++++++...##.......   ",
"   .......+++++###+++++++...##.......   ",
"   .......+++++++++++++++...++.......   ",
"   .......+++++++++++++++...++.......   ",
"   .......+++++++++++++++...++.......   ",
"   ...####..++++++++++...+++++.......   ",
"   ...####..++++++++++...+++++.......   ",
"   ...####..++++++++++...+++++.......   ",
"   ...####..++++++++++...+++++.......   ",
"      ......++++++++++...+++......      ",
"      ......++++++++++...+++......      ",
"      ......++++++++++...+++......      ",
"      ....##...+++....###+++......      ",
"      ....##...+++....###+++......      ",
"      ....##...+++....###+++......      ",
"      ....##+++...@@@@###+++......      ",
"      ....##+++...@@@@###+++......      ",
"      ....##+++...@@@@###+++......      ",
"          ..###@@@####+++.....          ",
"          ..###@@@####+++.....          ",
"          ..###@@@####+++.....          ",
"          ..+++#######+++.....          ",
"          ..+++#######+++.....          ",
"          ..+++#######+++.....          ",
"          ..+++#######+++.....          ",
"            ...+++++++......            ",
"            ...+++++++......            ",
"            ...+++++++......            ",
"               ..........               ",
"               ..........               ",
"               ..........               "};
