/* XPM */
static xpm_row_t purple_4_up[] = {
"128 40 5 1",
" 	c None",
".	c #694974",
"+	c #8E6A9A",
"@	c #785384",
"#	c #BEABC4",
"                                         ..............................................                                         ",
"                                         ..............................................                                         ",
"                                         ..............................................                                         ",
"                      ....................................................................................                      ",
"                      ....................................................................................                      ",
"                      ....................................................................................                      ",
"            .............................++++++@@@@@@######+++++++@@@.........@@@++++++.............................            ",
"            .............................++++++@@@@@@######+++++++@@@.........@@@++++++.............................            ",
"            .............................++++++@@@@@@######+++++++@@@.........@@@++++++.............................            ",
"      ................@@@@@@+++.......+++@@@@@@######.............@@@@@@@@@@@@.........@@@++++++++++@@@@@@................      ",
"      ................@@@@@@+++.......+++@@@@@@######.............@@@@@@@@@@@@.........@@@++++++++++@@@@@@................      ",
"      ................@@@@@@+++.......+++@@@@@@######.............@@@@@@@@@@@@.........@@@++++++++++@@@@@@................      ",
"   .........@@@+++@@@@@@@......+++++++@@@............@@@++++++@@@@............######@@@...................@@@@@@@@@@.........   ",
"   .........@@@+++@@@@@@@......+++++++@@@............@@@++++++@@@@............######@@@...................@@@@@@@@@@.........   ",
"   .........@@@+++@@@@@@@......+++++++@@@............@@@++++++@@@@............######@@@...................@@@@@@@@@@.........   ",
"......@@@@@@++++++.......@@@+++++++......+++@@@@@@@@@@@@......++++++++++@@@@@@......###@@@@@@@@@@@@@@@@@@@.......+++@@@@@@......",
"......@@@@@@++++++.......@@@+++++++......+++@@@@@@@@@@@@......++++++++++@@@@@@......###@@@@@@@@@@@@@@@@@@@.......+++@@@@@@......",
"......@@@@@@++++++.......@@@+++++++......+++@@@@@@@@@@@@......++++++++++@@@@@@......###@@@@@@@@@@@@@@@@@@@.......+++@@@@@@......",
"...@@@@@@+++###...@@@@@@@++++++....++++++@@@@@@@@@+++...@@@+++.......+++@@@@@@@@@+++...++++++@@@@@@@@@@@@@@@@@@@@...+++@@@@@@...",
"...@@@@@@+++###...@@@@@@@++++++....++++++@@@@@@@@@+++...@@@+++.......+++@@@@@@@@@+++...++++++@@@@@@@@@@@@@@@@@@@@...+++@@@@@@...",
"...@@@@@@+++###...@@@@@@@++++++....++++++@@@@@@@@@+++...@@@+++.......+++@@@@@@@@@+++...++++++@@@@@@@@@@@@@@@@@@@@...+++@@@@@@...",
"...@@@@@@+++###...@@@@@@@++++++....++++++@@@@@@@@@+++...@@@+++.......+++@@@@@@@@@+++...++++++@@@@@@@@@@@@@@@@@@@@...+++@@@@@@...",
"...@@@@@@+++###...@@@@@@@++++++....+++@@@@@@@@@+++###...@@@@@@@@@@+++@@@@@@@@@@@@@@@...++++++@@@@@@@@@@@@@.......++++++@@@@@@...",
"...@@@@@@+++###...@@@@@@@++++++....+++@@@@@@@@@+++###...@@@@@@@@@@+++@@@@@@@@@@@@@@@...++++++@@@@@@@@@@@@@.......++++++@@@@@@...",
"...@@@@@@+++###...@@@@@@@++++++....+++@@@@@@@@@+++###...@@@@@@@@@@+++@@@@@@@@@@@@@@@...++++++@@@@@@@@@@@@@.......++++++@@@@@@...",
"   ...@@@@@@++++++....@@@@@@@@@++++......@@@@@@++++++###............................+++@@@@@@@@@@@@@......@@@@++++++@@@@@@...   ",
"   ...@@@@@@++++++....@@@@@@@@@++++......@@@@@@++++++###............................+++@@@@@@@@@@@@@......@@@@++++++@@@@@@...   ",
"   ...@@@@@@++++++....@@@@@@@@@++++......@@@@@@++++++###............................+++@@@@@@@@@@@@@......@@@@++++++@@@@@@...   ",
"      ......@@@+++++++......@@@@@@@++++++......@@@++++++++++++++++@@@@@@@@@@@@@@@@@@@@@.............++++++@@@@@@@@@@......      ",
"      ......@@@+++++++......@@@@@@@++++++......@@@++++++++++++++++@@@@@@@@@@@@@@@@@@@@@.............++++++@@@@@@@@@@......      ",
"      ......@@@+++++++......@@@@@@@++++++......@@@++++++++++++++++@@@@@@@@@@@@@@@@@@@@@.............++++++@@@@@@@@@@......      ",
"            ......@@@@+++@@@.......@@@@@@@@@@@@........................................++++++#######+++@@@..........            ",
"            ......@@@@+++@@@.......@@@@@@@@@@@@........................................++++++#######+++@@@..........            ",
"            ......@@@@+++@@@.......@@@@@@@@@@@@........................................++++++#######+++@@@..........            ",
"                  .......................@@@@@@@@@@@@++++++++++++++++@@@@@@@@@@@@@@@@@@...................                      ",
"                  .......................@@@@@@@@@@@@++++++++++++++++@@@@@@@@@@@@@@@@@@...................                      ",
"                  .......................@@@@@@@@@@@@++++++++++++++++@@@@@@@@@@@@@@@@@@...................                      ",
"                                         ..............................................                                         ",
"                                         ..............................................                                         ",
"                                         ..............................................                                         "};
