/* XPM */
static xpm_row_t purple_2_up[] = {
"128 40 5 1",
" 	c None",
".	c #694974",
"+	c #785384",
"@	c #8E6A9A",
"#	c #BEABC4",
"                                         ..............................................                                         ",
"                                         ..............................................                                         ",
"                                         ..............................................                                         ",
"                      ....................................................................................                      ",
"                      ....................................................................................                      ",
"                      ....................................................................................                      ",
"            .............................++++++++++++@@@@@@@@@@@@@@@@++++++++++++++++++.............................            ",
"            .............................++++++++++++@@@@@@@@@@@@@@@@++++++++++++++++++.............................            ",
"            .............................++++++++++++@@@@@@@@@@@@@@@@++++++++++++++++++.............................            ",
"      .............+++@@@+++......+++++++++++++........................................@@@@@@@######@@@+++................      ",
"      .............+++@@@+++......+++++++++++++........................................@@@@@@@######@@@+++................      ",
"      .............+++@@@+++......+++++++++++++........................................@@@@@@@######@@@+++................      ",
"      .............+++@@@+++......+++++++++++++........................................@@@@@@@######@@@+++................      ",
"   .........++++@@@@@@......++++++@@@@@@@......+++@@@@@@@@@@@@@@@@@@@++++++++++++++++++.............@@@@@@++++++++++.........   ",
"   .........++++@@@@@@......++++++@@@@@@@......+++@@@@@@@@@@@@@@@@@@@++++++++++++++++++.............@@@@@@++++++++++.........   ",
"   .........++++@@@@@@......++++++@@@@@@@......+++@@@@@@@@@@@@@@@@@@@++++++++++++++++++.............@@@@@@++++++++++.........   ",
"......++++++@@@@@@@...+++++++++@@@.......++++++@@@@@@###............................@@@+++++++++++++......+++@@@@@@@++++++......",
"......++++++@@@@@@@...+++++++++@@@.......++++++@@@@@@###............................@@@+++++++++++++......+++@@@@@@@++++++......",
"......++++++@@@@@@@...+++++++++@@@.......++++++@@@@@@###............................@@@+++++++++++++......+++@@@@@@@++++++......",
"...++++++@@@####...++++++@@@@@@...@@@++++++++++@@@###...++++++++++@@@+++++++++++++++...@@@@@@@++++++++++++......@@@@@@@++++++...",
"...++++++@@@####...++++++@@@@@@...@@@++++++++++@@@###...++++++++++@@@+++++++++++++++...@@@@@@@++++++++++++......@@@@@@@++++++...",
"...++++++@@@####...++++++@@@@@@...@@@@@@@+++++++++@@@...+++@@@.......@@@+++++++++@@@...@@@@@@@++++++++++++++++++....@@@++++++...",
"...++++++@@@####...++++++@@@@@@...@@@@@@@+++++++++@@@...+++@@@.......@@@+++++++++@@@...@@@@@@@++++++++++++++++++....@@@++++++...",
"...++++++@@@####...++++++@@@@@@...@@@@@@@+++++++++@@@...+++@@@.......@@@+++++++++@@@...@@@@@@@++++++++++++++++++....@@@++++++...",
"   ...++++++@@@@@@@......+++@@@@@@.......@@@++++++++++++......@@@@@@@@@@++++++......###+++++++++++++++++++......@@@@++++++...   ",
"   ...++++++@@@@@@@......+++@@@@@@.......@@@++++++++++++......@@@@@@@@@@++++++......###+++++++++++++++++++......@@@@++++++...   ",
"   ...++++++@@@@@@@......+++@@@@@@.......@@@++++++++++++......@@@@@@@@@@++++++......###+++++++++++++++++++......@@@@++++++...   ",
"      ......++++@@@++++++......@@@@@@++++............+++@@@@@@+++++++.........######+++...................++++++++++......      ",
"      ......++++@@@++++++......@@@@@@++++............+++@@@@@@+++++++.........######+++...................++++++++++......      ",
"      ......++++@@@++++++......@@@@@@++++............+++@@@@@@+++++++.........######+++...................++++++++++......      ",
"      ......++++@@@++++++......@@@@@@++++............+++@@@@@@+++++++.........######+++...................++++++++++......      ",
"            ..........++++++@@@......@@@@++++++######................+++++++++.........++++@@@@@@@@@++++++..........            ",
"            ..........++++++@@@......@@@@++++++######................+++++++++.........++++@@@@@@@@@++++++..........            ",
"            ..........++++++@@@......@@@@++++++######................+++++++++.........++++@@@@@@@@@++++++..........            ",
"                      ...................@@@@@@++++++######@@@@@@@+++.........+++@@@@@@...................                      ",
"                      ...................@@@@@@++++++######@@@@@@@+++.........+++@@@@@@...................                      ",
"                      ...................@@@@@@++++++######@@@@@@@+++.........+++@@@@@@...................                      ",
"                                         ..............................................                                         ",
"                                         ..............................................                                         ",
"                                         ..............................................                                         "};
