/* XPM */
static xpm_row_t white_block[] = {
"64 64 80 1",
" 	c #C0C0C0",
".	c #B7B7B7",
"+	c #B4B4B4",
"@	c #B8B8B8",
"#	c #B5B5B5",
"$	c #BFBFBF",
"%	c #CFCFCF",
"&	c #D6D6D6",
"*	c #D5D5D5",
"=	c #D4D4D4",
"-	c #D3D3D3",
";	c #D2D2D2",
">	c #D1D1D1",
",	c #D0D0D0",
"'	c #CECECE",
")	c #CCCCCC",
"!	c #CBCBCB",
"~	c #C9C9C9",
"{	c #C8C8C8",
"]	c #C7C7C7",
"^	c #C6C6C6",
"/	c #C5C5C5",
"(	c #C3C3C3",
"_	c #C2C2C2",
":	c #C1C1C1",
"<	c #BDBDBD",
"[	c #E0E0E0",
"}	c #DFDFDF",
"|	c #DEDEDE",
"1	c #DDDDDD",
"2	c #DBDBDB",
"3	c #D9D9D9",
"4	c #D8D8D8",
"5	c #D7D7D7",
"6	c #CACACA",
"7	c #DCDCDC",
"8	c #CDCDCD",
"9	c #E1E1E1",
"0	c #DADADA",
"a	c #C4C4C4",
"b	c #E3E3E3",
"c	c #E2E2E2",
"d	c #E4E4E4",
"e	c #E5E5E5",
"f	c #E7E7E7",
"g	c #E8E8E8",
"h	c #E6E6E6",
"i	c #E9E9E9",
"j	c #EAEAEA",
"k	c #EBEBEB",
"l	c #B6B6B6",
"m	c #EDEDED",
"n	c #ECECEC",
"o	c #EFEFEF",
"p	c #EEEEEE",
"q	c #B2B2B2",
"r	c #B3B3B3",
"s	c #A2A2A2",
"t	c #A4A4A4",
"u	c #A3A3A3",
"v	c #A0A0A0",
"w	c #A1A1A1",
"x	c #F0F0F0",
"y	c #F1F1F1",
"z	c #F3F3F3",
"A	c #F2F2F2",
"B	c #F4F4F4",
"C	c #F5F5F5",
"D	c #F6F6F6",
"E	c #F9F9F9",
"F	c #F8F8F8",
"G	c #FAFAFA",
"H	c #F7F7F7",
"I	c #FBFBFB",
"J	c #FDFDFD",
"K	c #FCFCFC",
"L	c #FFFFFF",
"M	c #A8A8A8",
"N	c #AAAAAA",
"O	c #A9A9A9",
"   .++++++++++++++++++++++++++++++++++++++++++++++++++++++++.   ",
"   .++++++++++++++++++++++++++++++++++++++++++++++++++++++++.   ",
"   @#########################################+++++++++++++++.$  ",
"..@%&&*===-----;>,,%%%%%%')))!!!~~~~~~{]]^///((((((_:: $$$$$<...",
"++#&[}|1112222223445&&&&&*--->>>,%%%%%'))!666]]]]]]^//(_____$+++",
"++#&}}|117222222444&&&&&&*--;>>>%%%%%%8))!66~]]]]]]///(_____$+++",
"++#599}||1777222000455&&&&**=;;;,,,%%%'''8!!!~~~]]]^^^/aa(__$+++",
"++#4bc[}}|1112222223445&&&&&*--->>>%%%%%%')))666]]]]]]^//a__$+++",
"++#4cc[}}|1172222223445&&&&&*--->>>%%%%%%'))!666]]]]]]^//a__$+++",
"++#4cc9[[}||1777222033455&&&&===;;;,,,%%%'888!!!{{{]]]^^^/(( +++",
"++#4ccccc9}}}1112222223445&&&&&&--->>>,%%%%%')))666{]]]]]^//:+++",
"++#4ccccc9}}}1112222223445&&&&&&--->>>,%%%%%')))666{]]]]]^//:+++",
"++#3bcccc9[[}|117222220334&&&&&&===;>>,%%%%%'88)!66{{{]]]^/^_+++",
"++#0ddbccccc9}}}1112222220444&&&&&&=--;>>,%%%%%%)))666{]]]]](+++",
"++#0edbccccc9}}}1112222220444&&&&&&=--;>>,%%%%%%)))666{]]]]](+++",
"++#0edbccccc9}}}1117222220444&&&&&&=--;>>,%%%%%%8))!66{]]]]](+++",
"++#7ffeddbccccc9}}}1117222220444&&&&&&=--;>>,%%%%%%)))!66~]](+++",
"++#7gfeddbcccccc}}}1117222220444&&&&&&=--;>>>%%%%%%8))!66~]](+++",
"++#7gfeddbcccccc}}}|117222220444&&&&&&=--;>>>%%%%%%8))!66~]](+++",
"++#7gffhhebdbccc999}}}1717222000444&&&&**=;-;>>,%%%'''8!)!~6/#++",
"++#7gffffhdddcccccc[}}|117222222444&&&&&&*--->>>%%%%%%8))!66/#++",
"++#7gffffhddbcccccc[}}|117222222444&&&&&&*--;>>>%%%%%%8))!66/#++",
"++#1igffffhhebbbccc999}||1777222000455&&&&**=;;;,,,%%%'''8!!^#++",
"++#|jigfffffhdddcccccc[}}|1112222223445&&&&&*--->>>%%%%%%'))]#++",
"++#|iigfffffhdddcccccc[}}|1172222223445&&&&&*--->>>%%%%%%'))]#++",
"++#}kjiggffffeeebbbccc9[[}||1777222033455&&&&===;;;,,,%%%'8'{#++",
"++l9mnjiigffffffdddcccccc9}}}1112222223445&&&&&&--->>>,%%%%%~#++",
"++#9mnjiigffffffdddcccccc9}}}1112222223445&&&&&&--->>>,%%%%%~#++",
"++l9mmkjjiffffffeeebccccc9[[}|117222220334&&&&&&===;>>,%%%%%~#++",
"++lcopmnnkiiiffffffeddbccccc9}}}1112222220444&&&&&&=--;>>,%%~#++",
"++lcopmnnkiiiffffffeddbccccc9}}}1112222220444&&&&&&=--;>>,%%~#++",
"qq+copmnnkiiiffffffeddbccccc9}}}1117222220444&&&&&&=--;>>,%,~rqq",
"sst}oppppmnnkiiiffffffeddbccccc9}}}1117222220444&&&&&&=--;>>]uss",
"vvs}oppppmnnkiiiffffffeddbcccccc}}}1117222220444&&&&&&=--;>;]wvv",
"vvs}oppppmnnkiiiffffffeddbcccccc}}}|117222220444&&&&&&=--;>;]wvv",
"vvs[xxopppppmkkkiiiffffhhebdbccc999}}}1717222000444&&&&**=;-{wvv",
"vvs9yxoppppppnnniiiffffffhdddcccccc[}}|117222222444&&&&&&*-=~wvv",
"vvs9yxoppppppnnniiiffffffhddbcccccc[}}|117222222444&&&&&&*--~wvv",
"vvsczAxooopppmmmkkkiggffffhhebbbccc999}||1777222000455&&&&**6wvv",
"vvsbBzyxxoppppppnnnjiigfffffhdddcccccc[}}|1112222223445&&&&5!wvv",
"vvsbBzyxxoppppppnnnjiigfffffhdddcccccc[}}|1172222223445&&&&5!wvv",
"vvudCBAyyxooopppmmmkjjiggffffeeebbbccc9[[}||1777222033455&&5!wvv",
"vvueDCBzzAxxxppppppmnnjiigffffffdddcccccc9}}}1112222223445&5!wvv",
"vvueDCBzzAxxxppppppnnnjiigffffffdddcccccc9}}}1112222223445&5!wvv",
"vvueDCBzBAyyxopppppmnmkjjiffffffeeebccccc9[[}|117222220334&5!wvv",
"vvueDCCCCBzzAxxxppppppmnnkiiiffffffeddbccccc9}}}1112222220438svv",
"vvueDCCCCBzzAxxxppppppmnnkiiiffffffeddbccccc9}}}1112222220438svv",
"vvueDCCCCBzzzxxxppppppmnnkiiiffffffeddbccccc9}}}1117222220438svv",
"vvufEFDCCCCCBzzAxxxppppppmnnkiiiffffffeddbccccc9}}}111722222%svv",
"vvufEFDCCCCCCzzzxxxppppppmnnkiiiffffffeddbcccccc}}}111722227%svv",
"vvufEFDCCCCCCzzzxxxopppppmnnkiiiffffffeddbcccccc}}}|11722227%svv",
"vvuiGGFHHDCCCCCBzAAxxxopppppmkkkiiiffffhhebdbccc999}}}171727%svv",
"vvuiIGEFFHCCCCCCzzzyxxoppppppnnniiiffffffhdddcccccc[}}|11727%svv",
"vvuiIGEFFHCCCCCCzzzyxxoppppppnnniiiffffffhddbcccccc[}}|11727%svv",
"vvuiIGGEEFHHDCCCBBBAAAxooopppmmmkkkiggffffhhebbbccc999}||171,svv",
"vvuiIGGGGEFFHCCCCCCBzzyxxoppppppnnnjiigfffffhdddcccccc[}}|1|>svv",
"vvuiIGGGGEFFHCCCCCCzzzyxxoppppppnnnjiigfffffhdddcccccc[}}|1|>svv",
"vvukJKIGGGEEFDDDCCCBBBAyyxooopppmmmkjjiggffffeeebbbccc9[[}||>svv",
"vvumLLKGGGGGGFFFCCCCCCBzzAxxxppppppmnnjiigffffffdddcccccc9}[;svv",
"vvupLLJIIIIIGEEEDDDDDDCBBzyyxoooooommmkjjigggggfeeebbbbbb9[[-wvv",
"MMN[pmkiiiiiifffeeeeeedbbc99[}}}}}}|117220333333555******=;-6OMM",
"$$$NuuuuuuuuuuuuuuuuuuusssssssssssssssssssssssssssssssssssswO$$$",
"  $MvvvvvvvvvvvvvvvvvvvvvvvvvvvvvvvvvvvvvvvvvvvvvvvvvvvvvvvvM$  ",
"  $MvvvvvvvvvvvvvvvvvvvvvvvvvvvvvvvvvvvvvvvvvvvvvvvvvvvvvvvvM$  "};
