/* XPM */
static xpm_row_t big_w[] = {
"28 40 2 1",
" 	c None",
".	c #FF5522",
"                            ",
"                            ",
"                            ",
"                            ",
"                            ",
"                            ",
"                            ",
"                            ",
"                            ",
"                            ",
"                            ",
" ...        ....        ... ",
"....       .....       .... ",
"....       .....       .... ",
" ...       ......      ...  ",
" ....     .......     ....  ",
" ....     .......     ...   ",
" ....    ........    ....   ",
" ....    ... ....    ....   ",
" ....    ... ....   ....    ",
" ....   ...  ....   ...     ",
" ....   ...  ....  ....     ",
" ....  ....  ....  ....     ",
" ....  ...   ....  ...      ",
" .... ....   .... ....      ",
" .... ...     ... ...       ",
" .... ...     .......       ",
" ........     ......        ",
" .......      ......        ",
"  ......      .....         ",
"  .....       .....         ",
"  .....       .....         ",
"                            ",
"                            ",
"                            ",
"                            ",
"                            ",
"                            ",
"                            ",
"                            "};
