/* XPM */
static xpm_row_t big_f[] = {
"18 40 2 1",
" 	c None",
".	c #FF5522",
"                  ",
"                  ",
"                  ",
"                  ",
"                  ",
"                  ",
"                  ",
"                  ",
"                  ",
"                  ",
"                  ",
"     .............",
"    ..............",
"    ............. ",
"    ............. ",
"   ....           ",
"   ....           ",
"   ....           ",
"   ....           ",
"   ....           ",
"   ....           ",
"  ..............  ",
"  .............   ",
"  .............   ",
"  ....            ",
"  ...             ",
" ....             ",
" ....             ",
" ....             ",
" ....             ",
" ....             ",
" ...              ",
"                  ",
"                  ",
"                  ",
"                  ",
"                  ",
"                  ",
"                  ",
"                  "};
