/* XPM */
static xpm_row_t four[] = {
"25 30 2 1",
" 	c None",
".	c #FF5522",
"                         ",
"                         ",
"                         ",
"                         ",
"             .....       ",
"             .....       ",
"            ......       ",
"            ......       ",
"           .......       ",
"          ........       ",
"          ........       ",
"         .... ....       ",
"        ..... ....       ",
"        ....  ....       ",
"       ....   ....       ",
"       ....   ....       ",
"      ....    ....       ",
"     ....     ....       ",
"     ....     ....       ",
"    .................    ",
"    .................    ",
"    .................    ",
"    .................    ",
"              ....       ",
"              ....       ",
"              ....       ",
"              ....       ",
"              ....       ",
"                         ",
"                         "};
