/* XPM */
static xpm_row_t nine[] = {
"25 30 2 1",
" 	c None",
".	c #FF5522",
"                         ",
"                         ",
"                         ",
"                         ",
"         ......          ",
"        .........        ",
"      ............       ",
"      .............      ",
"     .....    .....      ",
"     .....     .....     ",
"     ....      .....     ",
"    .....      .....     ",
"    .....       ....     ",
"     ....       ....     ",
"     .....     .....     ",
"     ......   ......     ",
"      ..............     ",
"      ..............     ",
"       .............     ",
"          ..   .....     ",
"               ....      ",
"              .....      ",
"             ......      ",
"            ......       ",
"        .........        ",
"        ........         ",
"        .......          ",
"        ....             ",
"                         ",
"                         "};
