/* XPM */
static xpm_row_t seven[] = {
"25 30 2 1",
" 	c None",
".	c #FF5522",
"                         ",
"                         ",
"                         ",
"                         ",
"    .................    ",
"    .................    ",
"    .................    ",
"    ................     ",
"               .....     ",
"               ....      ",
"              .....      ",
"              ....       ",
"              ....       ",
"             .....       ",
"             ....        ",
"            .....        ",
"            ....         ",
"           .....         ",
"           .....         ",
"          .....          ",
"          .....          ",
"         .....           ",
"         .....           ",
"         ....            ",
"        .....            ",
"        .....            ",
"       .....             ",
"       .....             ",
"                         ",
"                         "};
