/* XPM */
static xpm_row_t six[] = {
"25 30 2 1",
" 	c None",
".	c #FF5522",
"                         ",
"                         ",
"                         ",
"                         ",
"             ....        ",
"          .......        ",
"         ........        ",
"        .........        ",
"       ......            ",
"      ......             ",
"      .....              ",
"     .....               ",
"     ..... ......        ",
"     .............       ",
"     ..............      ",
"     ...............     ",
"     .....     .....     ",
"     .....     .....     ",
"     ....       .....    ",
"     ....       .....    ",
"     ....       .....    ",
"     .....      .....    ",
"     .....     .....     ",
"      .....    .....     ",
"      .............      ",
"       ............      ",
"        ..........       ",
"          ......         ",
"                         ",
"                         "};
