/* XPM */
static xpm_row_t small_r[] = {
"13 40 2 1",
" 	c None",
".	c #FF5522",
"             ",
"             ",
"             ",
"             ",
"             ",
"             ",
"             ",
"             ",
"             ",
"             ",
"             ",
"             ",
"             ",
"             ",
"             ",
"             ",
"   ....  ....",
"   .... .... ",
"   ......... ",
"  ......     ",
"  .....      ",
"  .....      ",
"  ....       ",
"  ....       ",
" ....        ",
" ....        ",
" ....        ",
" ....        ",
" ....        ",
".....        ",
"....         ",
"....         ",
"             ",
"             ",
"             ",
"             ",
"             ",
"             ",
"             ",
"             "};
