/* XPM */
static xpm_row_t small_n[] = {
"16 40 2 1",
" 	c None",
".	c #FF5522",
"                ",
"                ",
"                ",
"                ",
"                ",
"                ",
"                ",
"                ",
"                ",
"                ",
"                ",
"                ",
"                ",
"                ",
"                ",
"                ",
"   ....  .....  ",
"   ... ........ ",
"   .............",
"  ......   .....",
"  .....     ....",
"  ....      ....",
"  ....     .... ",
" ....      .... ",
" ....      .... ",
" ....      .... ",
" ....      .... ",
" ....     ..... ",
" ....     ....  ",
"....      ....  ",
"....      ....  ",
"....      ....  ",
"                ",
"                ",
"                ",
"                ",
"                ",
"                ",
"                ",
"                "};
