/* XPM */
static xpm_row_t small_a[] = {
"16 40 2 1",
" 	c None",
".	c #FF5522",
"                ",
"                ",
"                ",
"                ",
"                ",
"                ",
"                ",
"                ",
"                ",
"                ",
"                ",
"                ",
"                ",
"                ",
"                ",
"                ",
"      .......   ",
"    ........... ",
"   .....  ..... ",
"   ....    .... ",
"           .... ",
"           .... ",
"      ......... ",
"  ............. ",
" .............  ",
" ....     ....  ",
".....     ....  ",
".....    .....  ",
".....    .....  ",
" ........ ....  ",
" ........ ......",
"   ....    .... ",
"                ",
"                ",
"                ",
"                ",
"                ",
"                ",
"                ",
"                "};
