/* XPM */
static xpm_row_t small_t[] = {
"10 40 2 1",
" 	c None",
".	c #FF5522",
"          ",
"          ",
"          ",
"          ",
"          ",
"          ",
"          ",
"          ",
"          ",
"          ",
"          ",
"          ",
"     ..   ",
"     ..   ",
"    ...   ",
"   ....   ",
" .........",
" .........",
"......... ",
"  ....    ",
"  ....    ",
"  ....    ",
"  ....    ",
" .....    ",
" ....     ",
" ....     ",
" ....     ",
" ....     ",
" ....     ",
" ......   ",
" ......   ",
"  .....   ",
"          ",
"          ",
"          ",
"          ",
"          ",
"          ",
"          ",
"          "};
