/* XPM */
static xpm_row_t twodots[] = {
"16 30 2 1",
" 	c None",
".	c #FF5522",
"                ",
"                ",
"                ",
"                ",
"                ",
"                ",
"                ",
"      ...       ",
"     .....      ",
"     .....      ",
"     .....      ",
"      ....      ",
"                ",
"                ",
"                ",
"                ",
"                ",
"                ",
"                ",
"                ",
"                ",
"      ....      ",
"     .....      ",
"     .....      ",
"     .....      ",
"      ...       ",
"                ",
"                ",
"                ",
"                "};
